<?xml version="1.0" standalone="no"?>
<!DOCTYPE svg PUBLIC "-//W3C//DTD SVG 20010904//EN"
 "http://www.w3.org/TR/2001/REC-SVG-20010904/DTD/svg10.dtd">
<svg version="1.0" xmlns="http://www.w3.org/2000/svg"
 width="48.000000pt" height="48.000000pt" viewBox="0 0 48.000000 48.000000"
 preserveAspectRatio="xMidYMid meet">

<g transform="translate(0.000000,48.000000) scale(0.100000,-0.100000)"
fill="#000000" stroke="none">
<path d="M207 433 c-15 -14 -5 -23 26 -23 42 0 70 -29 70 -71 0 -16 -7 -37
-16 -46 -34 -35 -117 -7 -117 39 0 10 -7 18 -15 18 -26 0 -16 -41 19 -76 45
-45 95 -47 137 -5 42 42 40 92 -5 137 -32 32 -81 46 -99 27z"/>
<path d="M97 182 c-54 -60 31 -142 147 -142 59 0 129 29 145 58 27 50 0 102
-52 102 -36 0 -36 -28 0 -32 61 -7 27 -68 -48 -88 -77 -21 -184 17 -177 63 3
20 10 22 78 27 41 3 75 10 75 15 0 6 -34 11 -76 13 -63 2 -78 0 -92 -16z"/>
</g>
</svg>
